<svg width="32" height="27" viewBox="0 0 32 27" fill="none" xmlns="http://www.w3.org/2000/svg">
<path d="M32 3.18129C30.8018 3.71213 29.5308 4.06057 28.2292 4.21504C29.5849 3.40254 30.6257 2.11591 31.1159 0.582909C29.8272 1.34764 28.4172 1.88644 26.947 2.17604C25.7494 0.900159 24.0432 0.102783 22.1549 0.102783C18.5291 0.102783 15.5895 3.04229 15.5895 6.66779C15.5895 7.18241 15.6476 7.68341 15.7595 8.16404C10.3032 7.89016 5.46575 5.27654 2.22762 1.30454C1.66262 2.27416 1.33888 3.40204 1.33888 4.60504C1.33888 6.88279 2.498 8.89216 4.2595 10.0695C3.21694 10.0369 2.19731 9.7553 1.28575 9.24829C1.28537 9.27579 1.28537 9.30329 1.28537 9.33091C1.28537 12.5118 3.54837 15.1653 6.55162 15.7684C5.58486 16.0314 4.57079 16.0699 3.58687 15.8809C4.42225 18.4891 6.84688 20.3871 9.71963 20.4403C7.47275 22.201 4.64188 23.2506 1.56613 23.2506C1.03613 23.2506 0.513625 23.2195 0 23.1589C2.90538 25.0216 6.35625 26.1085 10.0638 26.1085C22.1396 26.1085 28.743 16.1046 28.743 7.42916C28.743 7.14441 28.7368 6.86129 28.724 6.57979C30.0093 5.65064 31.1186 4.4998 32 3.18129Z" fill="#55ACEE"/>
</svg>
